<?xml version="1.0" standalone="no"?>
<!DOCTYPE svg PUBLIC "-//W3C//DTD SVG 20010904//EN"
 "http://www.w3.org/TR/2001/REC-SVG-20010904/DTD/svg10.dtd">
<svg version="1.0" xmlns="http://www.w3.org/2000/svg"
 width="100.000000pt" height="50.000000pt" viewBox="0 0 400.000000 172.000000"
 preserveAspectRatio="xMidYMid meet">
<metadata>
Created by potrace 1.16, written by Peter Selinger 2001-2019
</metadata>
<g transform="translate(0.000000,172.000000) scale(0.100000,-0.100000)"
fill="#b7791f" stroke="none">
<path d="M350 1514 c-106 -38 -200 -133 -264 -266 -75 -155 -81 -189 -81 -453
0 -206 2 -238 22 -311 58 -211 167 -366 309 -437 102 -52 251 -42 384 24 64
32 95 57 176 142 143 149 169 167 243 167 59 0 85 -8 204 -64 95 -46 199 -77
272 -83 62 -5 73 -3 98 17 23 18 27 29 27 71 0 40 -11 71 -60 169 l-60 120
162 1 c199 1 212 4 216 48 6 59 -1 61 -205 61 -208 0 -241 -7 -263 -59 -18
-45 -8 -87 50 -212 28 -61 49 -114 45 -117 -3 -4 -34 4 -68 17 -34 12 -75 26
-92 31 -16 4 -77 30 -134 59 -94 46 -111 51 -172 51 -38 0 -90 -7 -116 -16
-57 -19 -165 -104 -213 -169 -19 -25 -57 -63 -85 -84 -119 -91 -226 -119 -326
-86 -53 17 -139 76 -155 106 -5 10 -26 46 -47 81 -122 210 -146 530 -61 798
35 110 123 235 192 273 139 77 310 30 466 -129 82 -83 179 -162 221 -180 67
-28 169 -10 270 47 78 44 131 48 195 13 82 -44 129 -149 130 -286 l0 -58 453
0 c248 0 458 4 465 9 9 5 12 24 10 52 l-3 44 -407 3 -406 2 -7 50 c-4 27 -22
82 -42 122 -90 189 -246 238 -445 140 -147 -72 -158 -68 -352 117 -90 85 -125
111 -195 145 -83 39 -90 41 -196 44 -81 1 -122 -2 -155 -14z"/>
<path d="M3010 1279 c0 -55 -2 -60 -17 -53 -10 5 -41 9 -70 9 -43 0 -56 -5
-81 -28 -36 -35 -47 -82 -32 -138 21 -76 86 -110 163 -84 20 7 37 9 37 4 0 -5
14 -9 30 -9 l30 0 0 180 0 180 -30 0 -30 0 0 -61z m-25 -114 c27 -26 31 -54
13 -88 -27 -51 -66 -60 -103 -22 -31 30 -32 73 -4 109 26 33 62 34 94 1z"/>
<path d="M1790 1149 l0 -171 109 4 c121 3 144 13 189 79 20 29 23 44 20 96 -5
73 -25 107 -84 140 -33 19 -54 23 -136 23 l-98 0 0 -171z m198 91 c18 -11 40
-35 49 -54 14 -29 14 -39 3 -65 -22 -54 -64 -81 -126 -81 l-54 0 0 110 0 110
48 0 c29 0 59 -8 80 -20z"/>
<path d="M2194 1230 c-28 -11 -52 -46 -60 -87 -7 -40 11 -119 32 -140 25 -26
89 -35 134 -19 22 7 40 10 40 5 0 -5 14 -9 30 -9 l30 0 0 130 0 130 -30 0
c-20 0 -30 -5 -30 -16 0 -14 -2 -14 -22 0 -24 17 -90 20 -124 6z m101 -46 c18
-7 45 -55 45 -79 0 -24 -55 -75 -80 -75 -11 0 -32 11 -45 25 -62 61 0 159 80
129z"/>
<path d="M2422 1227 c2 -7 23 -66 48 -130 l45 -117 35 0 35 0 44 118 c25 64
47 123 49 130 3 10 -4 13 -28 10 -31 -3 -35 -7 -66 -88 -32 -84 -33 -85 -44
-55 -58 153 -53 145 -88 145 -23 0 -32 -4 -30 -13z"/>
<path d="M2700 1110 l0 -130 30 0 30 0 0 130 0 130 -30 0 -30 0 0 -130z"/>
<path d="M592 1018 c-16 -16 -17 -470 -2 -499 12 -22 68 -27 88 -7 17 17 17
489 0 506 -16 16 -70 16 -86 0z"/>
<path d="M792 894 c-31 -21 -30 -69 3 -90 22 -15 61 -15 382 -9 214 4 363 11
371 17 17 14 15 63 -4 82 -13 14 -61 16 -372 16 -307 0 -361 -2 -380 -16z"/>
<path d="M2060 610 l0 -160 30 0 30 0 0 95 c0 65 5 105 15 124 25 49 72 55
104 15 18 -23 21 -41 21 -130 l0 -104 30 0 30 0 0 99 c0 92 2 102 26 130 30
36 63 40 90 10 16 -17 20 -40 22 -130 l4 -109 29 0 29 0 0 110 c0 123 -13 168
-54 196 -34 22 -109 14 -139 -14 l-22 -21 -28 25 c-33 28 -100 33 -135 8 -20
-14 -22 -14 -22 0 0 11 -10 16 -30 16 l-30 0 0 -160z"/>
<path d="M3130 617 c0 -121 2 -136 20 -152 19 -17 69 -23 90 -10 5 3 10 17 10
31 0 21 -4 24 -27 22 -28 -3 -28 -3 -31 65 l-3 67 31 0 c23 0 30 4 30 20 0 16
-7 20 -30 20 -28 0 -30 3 -30 35 0 32 -2 35 -30 35 l-30 0 0 -133z"/>
<path d="M782 698 c-17 -17 -15 -54 4 -72 13 -13 43 -16 173 -16 109 0 161 4
169 12 18 18 15 75 -4 82 -31 12 -329 7 -342 -6z"/>
<path d="M2604 668 c-41 -31 -44 -37 -44 -91 0 -86 41 -129 124 -129 86 0 142
79 117 164 -23 74 -133 105 -197 56z"/>
<path d="M2850 570 l0 -120 30 0 30 0 0 73 c0 82 16 117 55 117 39 0 55 -35
55 -117 l0 -73 30 0 30 0 0 86 c0 118 -21 153 -93 154 -21 0 -47 -5 -58 -10
-13 -7 -19 -7 -19 0 0 5 -13 10 -30 10 l-30 0 0 -120z"/>
<path d="M3309 667 c-60 -40 -64 -133 -9 -189 25 -25 36 -28 89 -28 48 0 65 4
81 20 42 42 17 72 -35 44 -26 -14 -41 -16 -61 -9 -15 6 -27 14 -27 20 1 5 32
20 69 32 38 13 72 27 77 32 13 13 -10 68 -37 86 -32 23 -107 19 -147 -8z"/>
<path d="M3542 674 c-15 -10 -22 -25 -22 -48 0 -38 16 -55 74 -76 52 -20 55
-46 6 -43 -19 0 -47 4 -62 8 -25 7 -28 5 -28 -18 0 -33 27 -48 90 -49 72 -2
100 20 100 78 l0 45 -60 26 c-33 15 -60 30 -60 35 0 16 33 21 64 10 27 -11 33
-10 44 5 11 15 10 20 -5 30 -24 18 -114 16 -141 -3z"/>
</g>
</svg>
